<svg width="20" height="20" viewBox="0 0 20 20" fill="none" xmlns="http://www.w3.org/2000/svg">
<path d="M1.60416 19.4366C1.31196 19.4361 1.0334 19.3129 0.83645 19.097C0.635877 18.8829 0.53621 18.5934 0.562492 18.3012L0.8177 15.4949L12.6073 3.70953L16.2917 7.39287L4.5052 19.1772L1.69895 19.4324C1.66666 19.4355 1.63437 19.4366 1.60416 19.4366ZM17.0271 6.65641L13.3438 2.97308L15.5531 0.763701C15.7485 0.568097 16.0136 0.458191 16.2901 0.458191C16.5666 0.458191 16.8317 0.568097 17.0271 0.763701L19.2365 2.97308C19.4321 3.16846 19.542 3.43359 19.542 3.71006C19.542 3.98652 19.4321 4.25165 19.2365 4.44703L17.0281 6.65537L17.0271 6.65641Z" fill="#56CCF2"/>
</svg>
