<svg width="26" height="26" viewBox="0 0 26 26" fill="none" xmlns="http://www.w3.org/2000/svg">
<path fill-rule="evenodd" clip-rule="evenodd" d="M0.5 12.9995C0.5 19.9031 6.09682 25.4995 13 25.4995C19.9032 25.4995 25.5 19.9031 25.5 12.9995C25.5 6.09674 19.9028 0.499512 13 0.499512C6.09723 0.499512 0.5 6.09674 0.5 12.9995ZM2.375 12.9995C2.375 7.13228 7.13277 2.37451 13 2.37451C18.8672 2.37451 23.625 7.13228 23.625 12.9995C23.625 18.8675 18.8677 23.6245 13 23.6245C7.13232 23.6245 2.375 18.8675 2.375 12.9995ZM10.4446 16.7791C10.1715 17.1455 10.2007 17.6664 10.5328 18C10.8981 18.3669 11.4917 18.3682 11.8586 18.0029L16.2161 13.6641L16.3074 13.5588C16.5811 13.1912 16.5507 12.6685 16.2161 12.3354L11.8586 7.99667L11.7533 7.90613C11.3857 7.6346 10.8649 7.66598 10.5328 7.99953L10.4422 8.10487C10.1707 8.47247 10.2021 8.99324 10.5356 9.32535L14.225 13.001L10.5356 16.6742L10.4446 16.7791Z" fill="#003475"/>
</svg>
