<svg width="30" height="30" viewBox="0 0 30 30" fill="none" xmlns="http://www.w3.org/2000/svg">
<path fill-rule="evenodd" clip-rule="evenodd" d="M15 2C7.82026 2 2 7.82069 2 15C2 22.1793 7.82026 28 15 28C22.1789 28 28 22.1789 28 15C28 7.82112 22.1789 2 15 2ZM15 3.95C21.1019 3.95 26.05 8.89808 26.05 15C26.05 21.1019 21.1019 26.05 15 26.05C8.89724 26.05 3.95 21.1024 3.95 15C3.95 8.89761 8.89724 3.95 15 3.95ZM11.0692 12.3423C10.6881 12.0583 10.1464 12.0886 9.7995 12.434C9.41792 12.8139 9.41659 13.4313 9.79653 13.8128L14.3088 18.3446L14.4183 18.4395C14.8006 18.7242 15.3442 18.6926 15.6907 18.3446L20.203 13.8128L20.2971 13.7033C20.5795 13.321 20.5469 12.7794 20.2 12.434L20.0904 12.3398C19.7081 12.0574 19.1665 12.0901 18.8211 12.437L14.9984 16.2739L11.1784 12.437L11.0692 12.3423Z" fill="#003475"/>
</svg>
