<svg width="33" height="32" viewBox="0 0 33 32" fill="none" xmlns="http://www.w3.org/2000/svg">
<path d="M29.7933 24.44C29.7933 24.92 29.6867 25.4133 29.46 25.8933C29.2333 26.3733 28.94 26.8267 28.5533 27.2533C27.9 27.9733 27.18 28.4933 26.3667 28.8267C25.5667 29.16 24.7 29.3333 23.7667 29.3333C22.4067 29.3333 20.9533 29.0133 19.42 28.36C17.8867 27.7067 16.3533 26.8267 14.8333 25.72C13.3 24.6 11.8467 23.36 10.46 21.9867C9.08666 20.6 7.84666 19.1467 6.73999 17.6267C5.64666 16.1067 4.76666 14.5867 4.12666 13.08C3.48666 11.56 3.16666 10.1067 3.16666 8.72C3.16666 7.81334 3.32666 6.94667 3.64666 6.14667C3.96666 5.33334 4.47332 4.58667 5.17999 3.92001C6.03332 3.08001 6.96666 2.66667 7.95332 2.66667C8.32666 2.66667 8.69999 2.74667 9.03332 2.90667C9.37999 3.06667 9.68666 3.30667 9.92666 3.65334L13.02 8.01334C13.26 8.34667 13.4333 8.65334 13.5533 8.94667C13.6733 9.22667 13.74 9.50667 13.74 9.76C13.74 10.08 13.6467 10.4 13.46 10.7067C13.2867 11.0133 13.0333 11.3333 12.7133 11.6533L11.7 12.7067C11.5533 12.8533 11.4867 13.0267 11.4867 13.24C11.4867 13.3467 11.5 13.44 11.5267 13.5467C11.5667 13.6533 11.6067 13.7333 11.6333 13.8133C11.8733 14.2533 12.2867 14.8267 12.8733 15.52C13.4733 16.2133 14.1133 16.92 14.8067 17.6267C15.5267 18.3333 16.22 18.9867 16.9267 19.5867C17.62 20.1733 18.1933 20.5733 18.6467 20.8133C18.7133 20.84 18.7933 20.88 18.8867 20.92C18.9933 20.96 19.1 20.9733 19.22 20.9733C19.4467 20.9733 19.62 20.8933 19.7667 20.7467L20.78 19.7467C21.1133 19.4133 21.4333 19.16 21.74 19C22.0467 18.8133 22.3533 18.72 22.6867 18.72C22.94 18.72 23.2067 18.7733 23.5 18.8933C23.7933 19.0133 24.1 19.1867 24.4333 19.4133L28.8467 22.5467C29.1933 22.7867 29.4333 23.0667 29.58 23.4C29.7133 23.7333 29.7933 24.0667 29.7933 24.44Z" fill="#003475"/>
<path d="M25.1667 12C25.1667 11.2 24.54 9.97334 23.6067 8.97334C22.7533 8.05334 21.62 7.33334 20.5 7.33334" stroke="#003475" stroke-width="1.5" stroke-linecap="round" stroke-linejoin="round"/>
<path d="M29.8333 12C29.8333 6.84 25.66 2.66667 20.5 2.66667" stroke="#003475" stroke-width="1.5" stroke-linecap="round" stroke-linejoin="round"/>
</svg>
