<svg width="64" height="64" viewBox="0 0 64 64" fill="none" xmlns="http://www.w3.org/2000/svg">
<g clip-path="url(#clip0_148_436)">
<path fill-rule="evenodd" clip-rule="evenodd" d="M12.6251 8.00002H51.3749C54.1238 8.00002 56.3747 10.251 56.3747 12.9999V45.4988H52.593V46.6263H45.5315V45.4988H18.4685V46.6263H11.407V45.4988H7.62527V12.9999C7.62527 10.2489 9.87417 8.00002 12.6251 8.00002ZM0 48.8752H24.0939C24.1103 49.5666 24.6803 50.1262 25.3757 50.1262H38.6243C39.3197 50.1262 39.8897 49.5666 39.9061 48.8752H64V51.2497C64 54.0006 61.749 56.2495 59.0002 56.2495H4.99984C2.2489 56.2495 0 54.0006 0 51.2497V48.8752ZM11.1766 12.9999H52.8234V40.499H11.1766V12.9999Z" fill="#0072C5"/>
<path d="M38.9914 25.2762C38.969 25.8469 38.8851 26.4091 38.7396 26.963C38.5942 27.5168 38.3732 28.0175 38.0767 28.4651C37.7858 28.9126 37.4137 29.2707 36.9606 29.5392C36.5074 29.8077 35.9592 29.942 35.3158 29.942C34.9522 29.942 34.6249 29.8777 34.334 29.749C34.0431 29.6203 33.7969 29.4385 33.5955 29.2035C33.3941 28.963 33.2459 28.6749 33.1508 28.3392C33.0556 28.0035 33.0221 27.6259 33.0501 27.2063L33.478 22.3727H35.1564L34.7368 27.2063C34.7032 27.4972 34.706 27.735 34.7452 27.9196C34.7899 28.1042 34.8571 28.2469 34.9466 28.3476C35.0417 28.4483 35.148 28.521 35.2655 28.5658C35.3885 28.6049 35.5088 28.6245 35.6263 28.6245C35.8948 28.6245 36.141 28.5406 36.3648 28.3728C36.5885 28.2049 36.7816 27.9728 36.9438 27.6763C37.106 27.3798 37.2347 27.0329 37.3298 26.6357C37.4249 26.2329 37.4781 25.7993 37.4893 25.335C37.5284 24.5909 37.4921 23.9028 37.3802 23.2706C37.2739 22.6385 37.0893 22.0734 36.8263 21.5755C36.569 21.072 36.2333 20.6468 35.8193 20.3C35.4053 19.9475 34.913 19.679 34.3424 19.4944C33.7717 19.3042 33.12 19.209 32.3871 19.209C31.699 19.209 31.064 19.3153 30.4822 19.5279C29.906 19.7405 29.3885 20.0454 28.9297 20.4426C28.4766 20.8398 28.085 21.3154 27.7549 21.8692C27.4304 22.4175 27.1731 23.0301 26.9829 23.707C26.7982 24.3783 26.6892 25.1 26.6556 25.872C26.6164 26.6832 26.6584 27.4217 26.7815 28.0875C26.9101 28.7532 27.1143 29.3378 27.3941 29.8413C27.6794 30.3504 28.0346 30.7756 28.4598 31.1168C28.885 31.4581 29.3801 31.7155 29.9451 31.8889C30.5102 32.0623 31.1395 32.149 31.8333 32.149C32.32 32.149 32.8151 32.0931 33.3186 31.9812C33.8277 31.8749 34.2557 31.7378 34.6025 31.57L34.9214 32.8204C34.5298 33.0721 34.0403 33.2595 33.4529 33.3826C32.871 33.5057 32.32 33.5672 31.7997 33.5672C30.9102 33.5672 30.099 33.4581 29.3661 33.2399C28.6388 33.0274 27.9955 32.7085 27.436 32.2833C26.8766 31.8637 26.4094 31.3434 26.0346 30.7224C25.6654 30.1015 25.3912 29.3854 25.2122 28.5742C25.0388 27.763 24.9717 26.8623 25.0108 25.872C25.05 24.9546 25.1926 24.0902 25.4388 23.279C25.685 22.4678 26.0206 21.7321 26.4458 21.072C26.871 20.4119 27.3801 19.844 27.9731 19.3685C28.5717 18.8874 29.243 18.5181 29.9871 18.2608C30.7312 18.0034 31.5423 17.8748 32.4207 17.8748C33.2934 17.8748 34.085 17.9895 34.7955 18.2188C35.5116 18.4482 36.1382 18.7783 36.6753 19.209C37.2123 19.6342 37.6599 20.1517 38.0179 20.7615C38.376 21.3657 38.6361 22.0482 38.7984 22.8091C38.9606 23.5699 39.0249 24.3923 38.9914 25.2762ZM30.5158 26.1574C30.4878 26.5266 30.4906 26.8539 30.5242 27.1392C30.5577 27.4245 30.6221 27.6651 30.7172 27.8609C30.8123 28.0567 30.9354 28.2049 31.0864 28.3056C31.243 28.4007 31.4277 28.4483 31.6403 28.4483C31.7577 28.4483 31.8864 28.4203 32.0263 28.3644C32.1661 28.3028 32.3088 28.2021 32.4542 28.0623C32.5997 27.9224 32.7368 27.7294 32.8654 27.4833C32.9997 27.2315 33.1116 26.9154 33.2011 26.535L33.9144 27.3825C33.7857 27.8021 33.6263 28.1714 33.4361 28.4903C33.2459 28.8035 33.0277 29.0665 32.7815 29.2791C32.541 29.4917 32.278 29.6511 31.9927 29.7574C31.7074 29.8637 31.3997 29.9168 31.0696 29.9168C30.6612 29.9168 30.2976 29.8301 29.9787 29.6567C29.6598 29.4777 29.3941 29.2231 29.1815 28.8931C28.9689 28.563 28.8151 28.1686 28.7199 27.7098C28.6304 27.2455 28.6137 26.728 28.6696 26.1574C28.7311 25.5867 28.843 25.0581 29.0053 24.5713C29.1675 24.0846 29.3689 23.651 29.6095 23.2706C29.85 22.8846 30.1242 22.5573 30.4318 22.2888C30.7451 22.0147 31.0836 21.8077 31.4472 21.6678C31.8109 21.528 32.1913 21.458 32.5885 21.458C33.2319 21.458 33.7382 21.5503 34.1074 21.7349C34.4766 21.9196 34.8263 22.1322 35.1564 22.3727L34.3004 23.5224C34.1382 23.3769 33.9256 23.2371 33.6626 23.1028C33.4053 22.9629 33.0976 22.893 32.7396 22.893C32.4095 22.893 32.1186 22.9629 31.8668 23.1028C31.6207 23.2427 31.4053 23.4524 31.2207 23.7322C31.0416 24.0063 30.8934 24.3476 30.7759 24.756C30.6584 25.1588 30.5717 25.6259 30.5158 26.1574Z" fill="#0072C5"/>
</g>
<defs>
<clipPath id="clip0_148_436">
<rect width="64" height="64" fill="white"/>
</clipPath>
</defs>
</svg>
