<svg width="30" height="31" viewBox="0 0 30 31" fill="none" xmlns="http://www.w3.org/2000/svg">
<path d="M25.6667 15.7668V18.0335C25.6667 22.2335 23.2667 24.0335 19.6667 24.0335H7.66669C4.06669 24.0335 1.66669 22.2335 1.66669 18.0335V10.8335C1.66669 6.6335 4.06669 4.8335 7.66669 4.8335H11.2667C11.0934 5.34016 11 5.90016 11 6.50016V11.7002C11 12.9935 11.4267 14.0868 12.1867 14.8468C12.9467 15.6068 14.04 16.0335 15.3334 16.0335V17.8869C15.3334 18.5669 16.1067 18.9801 16.68 18.6068L20.5334 16.0335H24C24.6 16.0335 25.16 15.9401 25.6667 15.7668Z" stroke="#003475" stroke-width="2.5" stroke-miterlimit="10" stroke-linecap="round" stroke-linejoin="round"/>
<path d="M28.3333 6.50008V11.7001C28.3333 13.6868 27.32 15.18 25.6667 15.7667C25.16 15.94 24.6 16.0334 24 16.0334H20.5333L16.68 18.6067C16.1067 18.98 15.3333 18.5668 15.3333 17.8868V16.0334C14.04 16.0334 12.9467 15.6068 12.1867 14.8468C11.4267 14.0868 11 12.9934 11 11.7001V6.50008C11 5.90008 11.0933 5.34008 11.2667 4.83341C11.8533 3.18008 13.3467 2.16675 15.3333 2.16675H24C26.6 2.16675 28.3333 3.90008 28.3333 6.50008Z" stroke="#003475" stroke-width="2.5" stroke-miterlimit="10" stroke-linecap="round" stroke-linejoin="round"/>
<path d="M8.8667 28.8335H18.4667" stroke="#003475" stroke-width="2.5" stroke-miterlimit="10" stroke-linecap="round" stroke-linejoin="round"/>
<path d="M13.6667 24.0334V28.8334" stroke="#003475" stroke-width="2.5" stroke-miterlimit="10" stroke-linecap="round" stroke-linejoin="round"/>
<path d="M23.6607 9.16667H23.6727" stroke="#003475" stroke-width="2.5" stroke-linecap="round" stroke-linejoin="round"/>
<path d="M19.9276 9.16667H19.9396" stroke="#003475" stroke-width="2.5" stroke-linecap="round" stroke-linejoin="round"/>
<path d="M16.1939 9.16667H16.2059" stroke="#003475" stroke-width="2.5" stroke-linecap="round" stroke-linejoin="round"/>
</svg>
