<svg width="41" height="41" viewBox="0 0 41 41" fill="none" xmlns="http://www.w3.org/2000/svg">
<g clip-path="url(#clip0_111_283)">
<path d="M39.5316 0.679846L1.74127 0.678955C1.44461 0.678955 1.16087 0.796551 0.952399 1.00591C0.742596 1.21482 0.625 1.49812 0.625 1.79434V37.5695C0.625 38.1855 1.12434 38.6849 1.74127 38.6849H27.9109C27.9145 38.6849 27.9189 38.6875 27.9212 38.6875C27.9256 38.6875 27.9283 38.6849 27.9323 38.6849H35.9119C38.5227 38.6849 40.6465 36.561 40.6465 33.9503V1.79568C40.647 1.18008 40.1472 0.679846 39.5316 0.679846Z" fill="#0072C5"/>
<path d="M14.513 7.32309C15.13 7.32309 15.6293 6.82375 15.6293 6.20682V5.06961C15.6293 4.45267 15.13 3.95422 14.513 3.95422C13.897 3.95422 13.3977 4.45267 13.3977 5.06961V6.20682C13.3977 6.82375 13.897 7.32309 14.513 7.32309Z" fill="#4DD9E9"/>
<path d="M19.2812 9.59001C19.5676 9.59001 19.8527 9.48044 20.0701 9.26306L21.0803 8.25369C21.5164 7.8176 21.5164 7.11203 21.0803 6.67639C20.6442 6.24074 19.9382 6.2403 19.5021 6.67639L18.4928 7.68486C18.0567 8.12006 18.0567 8.82786 18.4928 9.26306C18.7101 9.48044 18.9966 9.59001 19.2812 9.59001Z" fill="#4DD9E9"/>
<path d="M18.4766 17.2827C18.0494 17.7273 18.0641 18.4329 18.5104 18.8601L19.5189 19.8276C19.7345 20.0356 20.012 20.1389 20.2913 20.1389C20.5844 20.1389 20.8766 20.0222 21.0962 19.7955C21.5234 19.35 21.5096 18.6436 21.0633 18.2173L20.0548 17.2489C19.612 16.8231 18.9038 16.8373 18.4766 17.2827Z" fill="#4DD9E9"/>
<path d="M14.5126 17.4235C16.8173 17.4235 18.6913 15.5487 18.6913 13.2453C18.6913 10.9406 16.8173 9.06482 14.5126 9.06482C12.207 9.06482 10.3313 10.9406 10.3313 13.2453C10.3313 15.5487 12.207 17.4235 14.5126 17.4235Z" fill="#4DD9E9"/>
<path d="M20.4352 13.2453C20.4352 13.8618 20.9354 14.3611 21.5515 14.3611H22.686C23.3012 14.3611 23.8014 13.8618 23.8014 13.2453C23.8014 12.6292 23.3012 12.1299 22.686 12.1299H21.5515C20.9354 12.1299 20.4352 12.6292 20.4352 13.2453Z" fill="#4DD9E9"/>
<path d="M8.91778 9.22556C9.13604 9.44382 9.42068 9.55162 9.70532 9.55162C9.99173 9.55162 10.2777 9.44204 10.496 9.22466C10.9303 8.78858 10.9303 8.08255 10.4942 7.64647L9.52046 6.67541C9.08437 6.24021 8.37879 6.24021 7.94315 6.6763C7.50796 7.11238 7.50796 7.8193 7.94404 8.25449L8.91778 9.22556Z" fill="#4DD9E9"/>
<path d="M31.1116 18.5553L20.805 29.0597L28.3793 36.5792H35.9126C37.2925 36.5792 38.4155 35.4567 38.4155 34.0762V26.0356L31.1116 18.5553Z" fill="#4DD9E9"/>
<path d="M2.85674 35.2339V36.5791H25.2112L14.4337 25.8823L2.85674 35.2339Z" fill="#4DD9E9"/>
<path d="M8.91794 17.2635L7.94599 18.2319C7.50856 18.6671 7.50767 19.3736 7.94331 19.8101C8.16069 20.0293 8.44711 20.1388 8.73308 20.1388C9.01861 20.1388 9.3028 20.0293 9.52062 19.8137L10.4935 18.8453C10.9295 18.4092 10.93 17.7036 10.4961 17.2671C10.0605 16.8301 9.35402 16.8283 8.91794 17.2635Z" fill="#4DD9E9"/>
<path d="M6.33921 14.3611H7.47286C8.08891 14.3611 8.58825 13.8618 8.58825 13.2453C8.58825 12.6292 8.08891 12.1299 7.47286 12.1299H6.33921C5.72317 12.1299 5.22383 12.6292 5.22383 13.2453C5.22383 13.8618 5.72317 14.3611 6.33921 14.3611Z" fill="#4DD9E9"/>
<path d="M13.3977 20.2823V21.4159C13.3977 22.0319 13.897 22.5313 14.513 22.5313C15.13 22.5313 15.6293 22.0319 15.6293 21.4159V20.2823C15.6293 19.6662 15.13 19.1669 14.513 19.1669C13.897 19.1669 13.3977 19.6662 13.3977 20.2823Z" fill="#4DD9E9"/>
</g>
<defs>
<clipPath id="clip0_111_283">
<rect width="40" height="40" fill="white" transform="translate(0.625 0.6875)"/>
</clipPath>
</defs>
</svg>
