<svg width="64" height="64" viewBox="0 0 64 64" fill="none" xmlns="http://www.w3.org/2000/svg">
<path d="M57.3903 23.2302L32.5778 40.3408C32.405 40.4596 32.1998 40.5244 32.0053 40.5244C31.8109 40.5244 31.6057 40.4596 31.4328 40.3408L6.62032 23.2302C5.63733 24.008 5 25.207 5 26.5681V52.4608C5 54.8049 6.90118 56.706 9.24524 56.706H54.7546C57.0987 56.706 58.9999 54.8049 58.9999 52.4608V26.5573C59.0107 25.207 58.3733 24.008 57.3903 23.2302ZM24.5627 39.8655L12.0214 52.4068C11.9242 52.504 11.7945 52.558 11.6649 52.558C11.5353 52.558 11.4057 52.504 11.3084 52.4068C11.114 52.2123 11.114 51.8883 11.3084 51.6938L23.8497 39.1526C24.0442 38.9581 24.3682 38.9581 24.5627 39.1526C24.7679 39.347 24.7679 39.6711 24.5627 39.8655ZM52.7022 52.4068C52.605 52.504 52.4754 52.558 52.3457 52.558C52.2161 52.558 52.0865 52.504 51.9893 52.4068L39.448 39.8655C39.2536 39.6711 39.2536 39.347 39.448 39.1526C39.6424 38.9581 39.9665 38.9581 40.1609 39.1526L52.7022 51.6938C52.8967 51.8883 52.8967 52.2123 52.7022 52.4068Z" fill="#0072C5"/>
<path d="M43.6712 26.7949H20.3386V28.3072H43.6712V26.7949Z" fill="#4DD9E9"/>
<path d="M20.3386 30.23L21.8833 31.2994H42.1265L43.6712 30.23V29.7871H20.3386V30.23Z" fill="#4DD9E9"/>
<path d="M43.6712 23.8027H20.3386V25.315H43.6712V23.8027Z" fill="#4DD9E9"/>
<path d="M54.4736 21.8907L33.6255 7.50227C32.6425 6.83254 31.357 6.83254 30.374 7.50227L9.5367 21.8907C9.22344 22.1068 9.22344 22.5604 9.5367 22.7765L16.4501 27.551V19.147H47.5602V27.551L54.4736 22.7765C54.7868 22.5604 54.7868 22.1068 54.4736 21.8907Z" fill="#0072C5"/>
<path d="M24.0223 32.7684L26.2152 34.2807H37.7951L39.9879 32.7684H24.0223Z" fill="#4DD9E9"/>
<path d="M35.6567 35.7607H28.3652L30.3852 37.1542C30.45 37.1974 30.5041 37.2298 30.5689 37.273H33.453C33.5179 37.2406 33.5719 37.1974 33.6367 37.1542L35.6567 35.7607Z" fill="#4DD9E9"/>
</svg>
