<svg width="16" height="11" viewBox="0 0 16 11" fill="none" xmlns="http://www.w3.org/2000/svg">
<path d="M15.8135 5.11709C14.9434 4.03385 11.8357 0.5 8 0.5C4.16426 0.5 1.0566 4.03385 0.18646 5.11709C-0.0621532 5.41898 -0.0621532 5.86293 0.18646 6.18257C1.0566 7.26581 4.16426 10.7997 8 10.7997C11.8357 10.7997 14.9434 7.26581 15.8135 6.18257C16.0622 5.88069 16.0622 5.43674 15.8135 5.11709ZM8 9.37902C5.94007 9.37902 4.27081 7.70977 4.27081 5.64983C4.27081 3.5899 5.94007 1.92064 8 1.92064C10.0599 1.92064 11.7292 3.5899 11.7292 5.64983C11.7292 7.70977 10.0599 9.37902 8 9.37902Z" fill="white"/>
<path d="M11.7333 5.65033C11.7333 7.71219 10.0618 9.38366 7.99994 9.38366C5.93807 9.38366 4.2666 7.71219 4.2666 5.65033C4.2666 3.58846 5.93807 1.91699 7.99994 1.91699C10.0618 1.91699 11.7333 3.58846 11.7333 5.65033ZM5.46127 5.65033C5.46127 7.05239 6.59787 8.18899 7.99994 8.18899C9.402 8.18899 10.5386 7.05239 10.5386 5.65033C10.5386 4.24826 9.402 3.11166 7.99994 3.11166C6.59787 3.11166 5.46127 4.24826 5.46127 5.65033Z" fill="#017E24"/>
<path d="M8.00039 4.05212C7.79399 4.04043 7.58749 4.07313 7.39355 4.14821C7.19961 4.22329 7.0223 4.33917 6.8725 4.48876C6.7227 4.63834 6.60356 4.81847 6.52238 5.01812C6.4412 5.21776 6.3997 5.43272 6.4004 5.64981L7.38255 5.64629C7.3823 5.56964 7.39696 5.49374 7.42563 5.42324C7.45429 5.35275 7.49636 5.28914 7.54925 5.23633C7.60215 5.18351 7.66475 5.14259 7.73323 5.11608C7.80171 5.08957 7.87463 5.07802 7.94751 5.08215L8.00039 4.05212Z" fill="#017E24"/>
</svg>
