<svg width="64" height="64" viewBox="0 0 64 64" fill="none" xmlns="http://www.w3.org/2000/svg">
<path d="M54.5601 23.157H9.43875C8.64411 23.157 8 22.514 8 21.7182V11.6412C8 10.8465 8.64411 10.2013 9.43875 10.2013H54.5601C55.3559 10.2013 56 10.8465 56 11.6412V21.7182C56 22.514 55.3559 23.157 54.5601 23.157ZM10.8787 20.2777H53.1219V13.0811H10.8787V20.2777Z" fill="#0072C5"/>
<path d="M46.7752 43.584H42.8485V47.5118H46.7752V43.584Z" fill="#4DD9E9"/>
<path d="M47.2541 47.9922H42.369V43.1048H47.2541V47.9922ZM43.3285 47.0326H46.2945V44.0643H43.3285V47.0326Z" fill="#4DD9E9"/>
<path d="M33.9654 30.0979H30.0375V34.0269H33.9654V30.0979Z" fill="#4DD9E9"/>
<path d="M34.4442 34.5073H29.5573V29.6187H34.4442V34.5073ZM30.5169 33.5477H33.4852V30.5783H30.5169V33.5477Z" fill="#4DD9E9"/>
<path d="M21.153 43.584H17.2286V47.5118H21.153V43.584Z" fill="#4DD9E9"/>
<path d="M21.632 47.9922H16.7481V43.1048H21.632V47.9922ZM17.7076 47.0326H20.6725V44.0643H17.7076V47.0326Z" fill="#4DD9E9"/>
<path d="M21.632 29.6187H16.7481V34.5073H21.632V29.6187Z" fill="#0072C5"/>
<path d="M34.445 43.1048H29.5581V47.9922H34.445V43.1048Z" fill="#0072C5"/>
<path d="M54.5603 20.2801H9.44012C8.64547 20.2801 8.00079 20.9242 8.00079 21.7188V56.219C8.00079 57.0137 8.64547 57.6578 9.44012 57.6578H50.0211C53.3181 57.6578 56.0002 54.9756 56.0002 51.6787V21.7194C56.0002 20.9242 55.355 20.2801 54.5603 20.2801ZM24.0311 48.9505C24.0311 49.7463 23.3864 50.3905 22.5917 50.3905H15.7887C14.994 50.3905 14.3499 49.7463 14.3499 48.9505V42.1458C14.3499 41.35 14.994 40.7059 15.7887 40.7059H22.5923C23.3869 40.7059 24.0316 41.35 24.0316 42.1458V48.9505H24.0311ZM24.0311 35.4657C24.0311 36.2603 23.3864 36.9056 22.5917 36.9056H15.7887C14.994 36.9056 14.3499 36.2603 14.3499 35.4657V28.6592C14.3499 27.8645 14.994 27.2193 15.7887 27.2193H22.5923C23.3869 27.2193 24.0316 27.8645 24.0316 28.6592V35.4657H24.0311ZM36.8437 48.9505C36.8437 49.7463 36.1984 50.3905 35.4038 50.3905H28.599C27.8043 50.3905 27.1591 49.7463 27.1591 48.9505V42.1458C27.1591 41.35 27.8043 40.7059 28.599 40.7059H35.4043C36.199 40.7059 36.8442 41.35 36.8442 42.1458V48.9505H36.8437ZM36.8437 35.4657C36.8437 36.2603 36.1984 36.9056 35.4038 36.9056H28.599C27.8043 36.9056 27.1591 36.2603 27.1591 35.4657V28.6592C27.1591 27.8645 27.8043 27.2193 28.599 27.2193H35.4043C36.199 27.2193 36.8442 27.8645 36.8442 28.6592V35.4657H36.8437ZM49.654 48.9505C49.654 49.7463 49.0099 50.3905 48.2152 50.3905H41.4099C40.6152 50.3905 39.97 49.7463 39.97 48.9505V42.1458C39.97 41.35 40.6152 40.7059 41.4099 40.7059H48.2152C49.0099 40.7059 49.654 41.35 49.654 42.1458V48.9505ZM49.654 35.4657C49.654 36.2603 49.0099 36.9056 48.2152 36.9056H41.4099C40.6152 36.9056 39.97 36.2603 39.97 35.4657V28.6592C39.97 27.8645 40.6152 27.2193 41.4099 27.2193H48.2152C49.0099 27.2193 49.654 27.8645 49.654 28.6592V35.4657Z" fill="#0072C5"/>
<path d="M47.2541 29.6187H42.369V34.5073H47.2541V29.6187Z" fill="#0072C5"/>
<path d="M18.5195 17.421C17.7243 17.421 17.0802 16.7769 17.0802 15.9822V7.4399C17.0802 6.64526 17.7243 6 18.5195 6C19.3147 6 19.9588 6.64526 19.9588 7.4399V15.9822C19.9588 16.7769 19.3141 17.421 18.5195 17.421Z" fill="#0072C5"/>
<path d="M32.0003 17.421C31.2045 17.421 30.5604 16.7769 30.5604 15.9822V7.4399C30.5604 6.64526 31.2045 6 32.0003 6C32.7949 6 33.439 6.64526 33.439 7.4399V15.9822C33.4385 16.7769 32.7944 17.421 32.0003 17.421Z" fill="#0072C5"/>
<path d="M45.4821 17.421C44.6863 17.421 44.0422 16.7769 44.0422 15.9822V7.4399C44.0422 6.64526 44.6863 6 45.4821 6C46.2768 6 46.9209 6.64526 46.9209 7.4399V15.9822C46.9209 16.7769 46.2768 17.421 45.4821 17.421Z" fill="#0072C5"/>
</svg>
