<svg width="41" height="41" viewBox="0 0 41 41" fill="none" xmlns="http://www.w3.org/2000/svg">
<g clip-path="url(#clip0_111_41)">
<path d="M33.1523 31.7024C33.1523 31.4998 32.9883 31.335 32.7857 31.335H8.61471C8.41208 31.335 8.24768 31.4998 8.24768 31.7024V37.4897C8.24768 37.6923 8.41208 37.8563 8.61471 37.8563H32.7857C32.9883 37.8563 33.1523 37.6923 33.1523 37.4897L33.1505 35.3631C33.1505 35.3569 33.1426 35.2431 33.1417 35.2369C33.1444 35.2198 33.1523 35.1543 33.1523 35.1363V31.7024Z" fill="#4DD9E9"/>
<path d="M32.7857 3.78247H8.61471C8.41208 3.78247 8.24768 3.94643 8.24768 4.14906V20.2805C8.24768 20.4831 8.41208 20.6471 8.61471 20.6471H32.7857C32.9883 20.6471 33.1523 20.4831 33.1523 20.2805V4.14906C33.1523 3.94643 32.9883 3.78247 32.7857 3.78247Z" fill="#4DD9E9"/>
<path d="M40.098 22.4577L1.30104 22.4568C1.20346 22.4568 1.11027 22.4955 1.0417 22.564C0.972687 22.6326 0.934006 22.7262 0.934006 22.8243V33.9952C0.934006 34.1979 1.0984 34.3627 1.30104 34.3627H6.07247C6.2751 34.3627 6.4395 34.1979 6.4395 33.9952V30.4309C6.4395 29.932 6.84521 29.5258 7.34412 29.5258H34.0575C34.5564 29.5258 34.9626 29.932 34.9626 30.4309V33.9952C34.9626 34.1979 35.1265 34.3627 35.3292 34.3627H37.4865C39.1287 34.3627 40.4646 33.0269 40.4646 31.3865V22.8243C40.4646 22.6216 40.3006 22.4577 40.098 22.4577ZM26.9454 25.9882C26.9454 26.4871 26.5393 26.8933 26.0404 26.8933H23.5274C23.0285 26.8933 22.6232 26.4871 22.6232 25.9882C22.6232 25.4893 23.0285 25.0832 23.5274 25.0832H26.0404C26.5393 25.0832 26.9454 25.4893 26.9454 25.9882ZM18.7758 25.9882C18.7758 26.4871 18.3705 26.8933 17.8716 26.8933H15.3582C14.8597 26.8933 14.454 26.4871 14.454 25.9882C14.454 25.4893 14.8593 25.0832 15.3582 25.0832H17.8716C18.3705 25.0832 18.7758 25.4893 18.7758 25.9882Z" fill="#0072C5"/>
</g>
<defs>
<clipPath id="clip0_111_41">
<rect width="40" height="40" fill="white" transform="translate(0.625 0.6875)"/>
</clipPath>
</defs>
</svg>
