<svg width="16" height="17" viewBox="0 0 16 17" fill="none" xmlns="http://www.w3.org/2000/svg">
<g clip-path="url(#clip0_1_223)">
<path d="M7.99997 6.09976C7.36345 6.09976 6.753 6.35261 6.30291 6.8027C5.85283 7.25279 5.59997 7.86324 5.59997 8.49976C5.59997 9.13628 5.85283 9.74673 6.30291 10.1968C6.753 10.6469 7.36345 10.8998 7.99997 10.8998C8.63649 10.8998 9.24694 10.6469 9.69703 10.1968C10.1471 9.74673 10.4 9.13628 10.4 8.49976C10.4 7.86324 10.1471 7.25279 9.69703 6.8027C9.24694 6.35261 8.63649 6.09976 7.99997 6.09976ZM7.99997 4.49976C9.06084 4.49976 10.0783 4.92118 10.8284 5.67133C11.5785 6.42147 12 7.43889 12 8.49976C12 9.56062 11.5785 10.578 10.8284 11.3282C10.0783 12.0783 9.06084 12.4998 7.99997 12.4998C6.9391 12.4998 5.92169 12.0783 5.17154 11.3282C4.4214 10.578 3.99997 9.56062 3.99997 8.49976C3.99997 7.43889 4.4214 6.42147 5.17154 5.67133C5.92169 4.92118 6.9391 4.49976 7.99997 4.49976ZM13.2 4.29976C13.2 4.56497 13.0946 4.81933 12.9071 5.00686C12.7195 5.1944 12.4652 5.29976 12.2 5.29976C11.9348 5.29976 11.6804 5.1944 11.4929 5.00686C11.3053 4.81933 11.2 4.56497 11.2 4.29976C11.2 4.03454 11.3053 3.78019 11.4929 3.59265C11.6804 3.40511 11.9348 3.29976 12.2 3.29976C12.4652 3.29976 12.7195 3.40511 12.9071 3.59265C13.0946 3.78019 13.2 4.03454 13.2 4.29976ZM7.99997 2.09976C6.02077 2.09976 5.69757 2.10536 4.77677 2.14616C4.14957 2.17576 3.72877 2.25976 3.33837 2.41176C2.99117 2.54616 2.74077 2.70696 2.47437 2.97416C2.22398 3.21608 2.03145 3.51142 1.91117 3.83816C1.75917 4.23016 1.67517 4.65016 1.64637 5.27656C1.60477 6.15976 1.59997 6.46856 1.59997 8.49976C1.59997 10.479 1.60557 10.8022 1.64637 11.723C1.67597 12.3494 1.75997 12.771 1.91117 13.1606C2.04717 13.5086 2.20717 13.759 2.47277 14.0246C2.74237 14.2934 2.99277 14.4542 3.33677 14.587C3.73197 14.7398 4.15277 14.8246 4.77677 14.8534C5.65997 14.895 5.96877 14.8998 7.99997 14.8998C9.97917 14.8998 10.3024 14.8942 11.2232 14.8534C11.8488 14.8238 12.2704 14.7398 12.6608 14.5886C13.0072 14.4534 13.2592 14.2926 13.5248 14.027C13.7944 13.7574 13.9552 13.507 14.088 13.163C14.24 12.7686 14.3248 12.347 14.3536 11.723C14.3952 10.8398 14.4 10.531 14.4 8.49976C14.4 6.52056 14.3944 6.19736 14.3536 5.27656C14.324 4.65096 14.24 4.22856 14.088 3.83816C13.9674 3.51176 13.7752 3.21652 13.5256 2.97416C13.2838 2.72363 12.9884 2.53109 12.6616 2.41096C12.2696 2.25896 11.8488 2.17496 11.2232 2.14616C10.34 2.10456 10.0312 2.09976 7.99997 2.09976ZM7.99997 0.499756C10.1736 0.499756 10.4448 0.507756 11.2976 0.547756C12.1496 0.587756 12.7296 0.721356 13.24 0.919756C13.768 1.12296 14.2128 1.39816 14.6576 1.84216C15.0644 2.24207 15.3791 2.72583 15.58 3.25976C15.7776 3.76936 15.912 4.35016 15.952 5.20216C15.9896 6.05496 16 6.32616 16 8.49976C16 10.6734 15.992 10.9446 15.952 11.7974C15.912 12.6494 15.7776 13.2294 15.58 13.7398C15.3797 14.274 15.0649 14.7579 14.6576 15.1574C14.2575 15.564 13.7738 15.8788 13.24 16.0798C12.7304 16.2774 12.1496 16.4118 11.2976 16.4518C10.4448 16.4894 10.1736 16.4998 7.99997 16.4998C5.82637 16.4998 5.55517 16.4918 4.70237 16.4518C3.85037 16.4118 3.27037 16.2774 2.75997 16.0798C2.22583 15.8793 1.74199 15.5645 1.34237 15.1574C0.935495 14.7575 0.620715 14.2737 0.41997 13.7398C0.22157 13.2302 0.0879694 12.6494 0.0479694 11.7974C0.0103694 10.9446 -3.05176e-05 10.6734 -3.05176e-05 8.49976C-3.05176e-05 6.32616 0.00796944 6.05496 0.0479694 5.20216C0.0879694 4.34936 0.22157 3.77016 0.41997 3.25976C0.620158 2.7255 0.935012 2.24161 1.34237 1.84216C1.74211 1.43514 2.22591 1.12034 2.75997 0.919756C3.27037 0.721356 3.84957 0.587756 4.70237 0.547756C5.55517 0.510156 5.82637 0.499756 7.99997 0.499756Z" fill="white"/>
</g>
<defs>
<clipPath id="clip0_1_223">
<rect width="16" height="16" fill="white" transform="translate(0 0.5)"/>
</clipPath>
</defs>
</svg>
