<svg width="64" height="49" viewBox="0 0 64 49" fill="none" xmlns="http://www.w3.org/2000/svg">
<path fill-rule="evenodd" clip-rule="evenodd" d="M12.6251 1.52588e-05H51.3749C54.1238 1.52588e-05 56.3747 2.25097 56.3747 4.99985V37.4988H52.593V38.6263H45.5315V37.4988H18.4685V38.6263H11.407V37.4988H7.62527V4.99985C7.62527 2.24891 9.87417 1.52588e-05 12.6251 1.52588e-05ZM0 40.8752H24.0939C24.1103 41.5666 24.6803 42.1262 25.3757 42.1262H38.6243C39.3197 42.1262 39.8897 41.5666 39.9061 40.8752H64V43.2497C64 46.0006 61.749 48.2495 59.0002 48.2495H4.99984C2.2489 48.2495 0 46.0006 0 43.2497V40.8752ZM11.1766 4.99985H52.8234V32.499H11.1766V4.99985Z" fill="#0072C5"/>
<path d="M38.9914 17.2762C38.969 17.8469 38.8851 18.4091 38.7396 18.963C38.5942 19.5168 38.3732 20.0175 38.0767 20.4651C37.7858 20.9126 37.4137 21.2707 36.9606 21.5392C36.5074 21.8077 35.9592 21.942 35.3158 21.942C34.9522 21.942 34.6249 21.8777 34.334 21.749C34.0431 21.6203 33.7969 21.4385 33.5955 21.2035C33.3941 20.963 33.2459 20.6749 33.1508 20.3392C33.0556 20.0035 33.0221 19.6259 33.0501 19.2063L33.478 14.3727H35.1564L34.7368 19.2063C34.7032 19.4972 34.706 19.735 34.7452 19.9196C34.7899 20.1042 34.8571 20.2469 34.9466 20.3476C35.0417 20.4483 35.148 20.521 35.2655 20.5658C35.3885 20.6049 35.5088 20.6245 35.6263 20.6245C35.8948 20.6245 36.141 20.5406 36.3648 20.3728C36.5885 20.2049 36.7816 19.9728 36.9438 19.6763C37.106 19.3798 37.2347 19.0329 37.3298 18.6357C37.4249 18.2329 37.4781 17.7993 37.4893 17.335C37.5284 16.5909 37.4921 15.9028 37.3802 15.2706C37.2739 14.6385 37.0893 14.0734 36.8263 13.5755C36.569 13.072 36.2333 12.6468 35.8193 12.3C35.4053 11.9475 34.913 11.679 34.3424 11.4944C33.7717 11.3042 33.12 11.209 32.3871 11.209C31.699 11.209 31.064 11.3153 30.4822 11.5279C29.906 11.7405 29.3885 12.0454 28.9297 12.4426C28.4766 12.8398 28.085 13.3154 27.7549 13.8692C27.4304 14.4175 27.1731 15.0301 26.9829 15.707C26.7982 16.3783 26.6892 17.1 26.6556 17.872C26.6164 18.6832 26.6584 19.4217 26.7815 20.0875C26.9101 20.7532 27.1143 21.3378 27.3941 21.8413C27.6794 22.3504 28.0346 22.7756 28.4598 23.1168C28.885 23.4581 29.3801 23.7155 29.9451 23.8889C30.5102 24.0623 31.1395 24.149 31.8333 24.149C32.32 24.149 32.8151 24.0931 33.3186 23.9812C33.8277 23.8749 34.2557 23.7378 34.6025 23.57L34.9214 24.8204C34.5298 25.0721 34.0403 25.2595 33.4529 25.3826C32.871 25.5057 32.32 25.5672 31.7997 25.5672C30.9102 25.5672 30.099 25.4581 29.3661 25.2399C28.6388 25.0274 27.9955 24.7085 27.436 24.2833C26.8766 23.8637 26.4094 23.3434 26.0346 22.7224C25.6654 22.1015 25.3912 21.3854 25.2122 20.5742C25.0388 19.763 24.9717 18.8623 25.0108 17.872C25.05 16.9546 25.1926 16.0902 25.4388 15.279C25.685 14.4678 26.0206 13.7321 26.4458 13.072C26.871 12.4119 27.3801 11.844 27.9731 11.3685C28.5717 10.8874 29.243 10.5181 29.9871 10.2608C30.7312 10.0034 31.5423 9.87477 32.4207 9.87477C33.2934 9.87477 34.085 9.98946 34.7955 10.2188C35.5116 10.4482 36.1382 10.7783 36.6753 11.209C37.2123 11.6342 37.6599 12.1517 38.0179 12.7615C38.376 13.3657 38.6361 14.0482 38.7984 14.8091C38.9606 15.5699 39.0249 16.3923 38.9914 17.2762ZM30.5158 18.1574C30.4878 18.5266 30.4906 18.8539 30.5242 19.1392C30.5577 19.4245 30.6221 19.6651 30.7172 19.8609C30.8123 20.0567 30.9354 20.2049 31.0864 20.3056C31.243 20.4007 31.4277 20.4483 31.6403 20.4483C31.7577 20.4483 31.8864 20.4203 32.0263 20.3644C32.1661 20.3028 32.3088 20.2021 32.4542 20.0623C32.5997 19.9224 32.7368 19.7294 32.8654 19.4833C32.9997 19.2315 33.1116 18.9154 33.2011 18.535L33.9144 19.3825C33.7857 19.8021 33.6263 20.1714 33.4361 20.4903C33.2459 20.8035 33.0277 21.0665 32.7815 21.2791C32.541 21.4917 32.278 21.6511 31.9927 21.7574C31.7074 21.8637 31.3997 21.9168 31.0696 21.9168C30.6612 21.9168 30.2976 21.8301 29.9787 21.6567C29.6598 21.4777 29.3941 21.2231 29.1815 20.8931C28.9689 20.563 28.8151 20.1686 28.7199 19.7098C28.6304 19.2455 28.6137 18.728 28.6696 18.1574C28.7311 17.5867 28.843 17.0581 29.0053 16.5713C29.1675 16.0846 29.3689 15.651 29.6095 15.2706C29.85 14.8846 30.1242 14.5573 30.4318 14.2888C30.7451 14.0147 31.0836 13.8077 31.4472 13.6678C31.8109 13.528 32.1913 13.458 32.5885 13.458C33.2319 13.458 33.7382 13.5503 34.1074 13.7349C34.4766 13.9196 34.8263 14.1322 35.1564 14.3727L34.3004 15.5224C34.1382 15.3769 33.9256 15.2371 33.6626 15.1028C33.4053 14.9629 33.0976 14.893 32.7396 14.893C32.4095 14.893 32.1186 14.9629 31.8668 15.1028C31.6207 15.2427 31.4053 15.4524 31.2207 15.7322C31.0416 16.0063 30.8934 16.3476 30.7759 16.756C30.6584 17.1588 30.5717 17.6259 30.5158 18.1574Z" fill="#0072C5"/>
</svg>
