<svg width="32" height="32" viewBox="0 0 32 32" fill="none" xmlns="http://www.w3.org/2000/svg">
<g opacity="0.5">
<path d="M22.735 9.79108C20.4465 9.79108 18.5845 7.92875 18.5845 5.63952V0.342285H4.20703V31.8043H26.2649C27.4626 31.8043 28.437 30.8298 28.437 29.6318V9.79108H22.735Z" fill="#0072C5"/>
<path d="M22.7355 7.81066H26.9634L20.5645 1.67334V5.63958C20.5645 6.83624 21.5385 7.81066 22.7355 7.81066Z" fill="#14639C"/>
<path d="M7.00534 22H9.26934C10.9013 22 12.1173 20.928 12.1173 19.2C12.1173 17.472 10.9013 16.4 9.26934 16.4H7.00534V22ZM7.97334 21.128V17.272H9.26934C10.3573 17.272 11.1493 17.984 11.1493 19.2C11.1493 20.416 10.3573 21.128 9.26934 21.128H7.97334ZM15.926 22.104C17.558 22.104 18.806 20.928 18.806 19.2C18.806 17.472 17.558 16.296 15.926 16.296C14.294 16.296 13.046 17.472 13.046 19.2C13.046 20.928 14.294 22.104 15.926 22.104ZM15.926 21.216C14.846 21.216 14.022 20.4 14.022 19.2C14.022 18 14.846 17.184 15.926 17.184C17.014 17.184 17.838 18 17.838 19.2C17.838 20.4 17.014 21.216 15.926 21.216ZM22.5813 22.104C23.9813 22.104 25.0133 21.256 25.3173 19.968H24.2933C24.0293 20.736 23.4373 21.216 22.5813 21.216C21.4773 21.216 20.7173 20.4 20.7173 19.2C20.7173 18 21.4773 17.184 22.5813 17.184C23.4373 17.184 24.0293 17.664 24.2933 18.432H25.3173C25.0133 17.144 23.9813 16.296 22.5813 16.296C20.9253 16.296 19.7413 17.472 19.7413 19.2C19.7413 20.928 20.9253 22.104 22.5813 22.104Z" fill="white"/>
</g>
</svg>
