<svg width="32" height="32" viewBox="0 0 32 32" fill="none" xmlns="http://www.w3.org/2000/svg">
<g opacity="0.5">
<path d="M22.735 9.79108C20.4465 9.79108 18.5845 7.92875 18.5845 5.63952V0.342285H4.20703V31.8043H26.2649C27.4626 31.8043 28.437 30.8298 28.437 29.6318V9.79108H22.735Z" fill="#0072C5"/>
<path d="M22.7355 7.81066H26.9634L20.5645 1.67334V5.63958C20.5645 6.83624 21.5385 7.81066 22.7355 7.81066Z" fill="#14639C"/>
<path d="M7.48591 22H8.67791L10.3259 19.92L11.9819 22H13.1739L10.9259 19.168L13.1259 16.4H11.9339L10.3259 18.416L8.72591 16.4H7.53391L9.73391 19.168L7.48591 22ZM14.1303 22H18.5943V21.088H15.0983V16.4H14.1303V22ZM22.0056 22.104C23.1576 22.104 24.3656 21.816 24.3656 20.464C24.3656 18.008 20.4216 19.312 20.4216 17.92C20.4216 17.336 21.0776 17.144 21.7496 17.144C22.5736 17.144 23.1176 17.448 23.2216 18.04H24.2216C24.0856 16.8 23.0936 16.296 21.7496 16.296C20.8696 16.296 19.4536 16.52 19.4536 17.92C19.4536 20.336 23.3976 18.976 23.3976 20.464C23.3976 21.12 22.7016 21.256 22.0056 21.256C21.0616 21.256 20.3816 20.992 20.2456 20.192H19.2376C19.3736 21.648 20.5336 22.104 22.0056 22.104Z" fill="white"/>
</g>
</svg>
