<svg width="32" height="32" viewBox="0 0 32 32" fill="none" xmlns="http://www.w3.org/2000/svg">
<g opacity="0.5">
<path d="M22.735 9.79108C20.4465 9.79108 18.5845 7.92875 18.5845 5.63952V0.342285H4.20703V31.8043H26.2649C27.4626 31.8043 28.437 30.8298 28.437 29.6318V9.79108H22.735Z" fill="#0072C5"/>
<path d="M22.7355 7.81066H26.9634L20.5645 1.67334V5.63958C20.5645 6.83624 21.5385 7.81066 22.7355 7.81066Z" fill="#14639C"/>
<path d="M11.3488 20.056C12.4368 20.056 13.2688 19.368 13.2688 18.224C13.2688 17.088 12.4368 16.4 11.3488 16.4H8.19675V22H9.16475V20.056H11.3488ZM9.16475 19.184V17.272H11.3488C11.9568 17.272 12.3008 17.68 12.3008 18.224C12.3008 18.776 11.9568 19.184 11.3488 19.184H9.16475ZM14.3296 22H16.5936C18.2256 22 19.4416 20.928 19.4416 19.2C19.4416 17.472 18.2256 16.4 16.5936 16.4H14.3296V22ZM15.2976 21.128V17.272H16.5936C17.6816 17.272 18.4736 17.984 18.4736 19.2C18.4736 20.416 17.6816 21.128 16.5936 21.128H15.2976ZM21.6023 19.696H24.7463V18.84H21.6023V17.272H25.1143V16.4H20.6343V22H21.6023V19.696Z" fill="white"/>
</g>
</svg>
