<svg width="41" height="41" viewBox="0 0 41 41" fill="none" xmlns="http://www.w3.org/2000/svg">
<g clip-path="url(#clip0_111_263)">
<path d="M9.36696 34.742V8.01672H4.07025V40.491H27.3872C28.5265 40.491 29.4535 39.564 29.4535 38.4229V35.9785H10.6043C9.92124 35.9785 9.36696 35.4255 9.36696 34.742Z" fill="#4DD9E9"/>
<path d="M31.4718 8.42997H35.386L29.4058 2.69458V6.36403C29.4058 7.50381 30.332 8.42997 31.4718 8.42997Z" fill="#0072C5"/>
<path d="M31.4704 10.9042C28.9671 10.9042 26.9297 8.86686 26.9297 6.36356V1.03125H11.8414V33.5051H30.5557C30.6001 33.4998 30.6444 33.4915 30.691 33.4915C30.7381 33.4915 30.782 33.5003 30.8277 33.5051H35.1592C36.2998 33.5051 37.2255 32.5772 37.2255 31.437V10.9042H31.4704Z" fill="#0072C5"/>
<path d="M21.7296 24.6995H17.5331C16.8487 24.6995 16.2957 24.1465 16.2957 23.4626C16.2957 22.7799 16.8491 22.2261 17.5331 22.2261H21.7296C22.4113 22.2261 22.9656 22.7799 22.9656 23.4626C22.9652 24.1465 22.4109 24.6995 21.7296 24.6995Z" fill="#4DD9E9"/>
<path d="M28.3829 24.6995H26.6616C25.978 24.6995 25.4242 24.1465 25.4242 23.4626C25.4242 22.7799 25.9785 22.2261 26.6616 22.2261H28.3829C29.0664 22.2261 29.6202 22.7799 29.6202 23.4626C29.6207 24.1465 29.0664 24.6995 28.3829 24.6995Z" fill="#4DD9E9"/>
<path d="M31.5327 19.0177H17.5327C16.8483 19.0177 16.2953 18.4643 16.2953 17.7807C16.2953 17.0977 16.8487 16.5438 17.5327 16.5438H31.5327C32.2162 16.5438 32.77 17.0977 32.77 17.7807C32.7705 18.4643 32.2162 19.0177 31.5327 19.0177Z" fill="#4DD9E9"/>
</g>
<defs>
<clipPath id="clip0_111_263">
<rect width="40" height="40" fill="white" transform="translate(0.625 0.6875)"/>
</clipPath>
</defs>
</svg>
