<svg width="100" height="100" viewBox="0 0 100 100" fill="none" xmlns="http://www.w3.org/2000/svg">
<path d="M83.4766 25.8985L67.8516 10.2735C67.2562 9.6931 66.4564 9.37036 65.625 9.37505H34.375C32.7174 9.37505 31.1277 10.0335 29.9556 11.2056C28.7835 12.3777 28.125 13.9674 28.125 15.6251V21.8751H21.875C20.2174 21.8751 18.6277 22.5335 17.4556 23.7056C16.2835 24.8777 15.625 26.4674 15.625 28.1251V84.375C15.625 86.0327 16.2835 87.6224 17.4556 88.7945C18.6277 89.9666 20.2174 90.625 21.875 90.625H65.625C67.2826 90.625 68.8723 89.9666 70.0444 88.7945C71.2165 87.6224 71.875 86.0327 71.875 84.375V78.125H78.125C79.7826 78.125 81.3723 77.4666 82.5444 76.2945C83.7165 75.1224 84.375 73.5327 84.375 71.875V28.1251C84.3797 27.2936 84.0569 26.4938 83.4766 25.8985ZM53.125 75H34.375C33.5462 75 32.7513 74.6708 32.1653 74.0848C31.5792 73.4987 31.25 72.7038 31.25 71.875C31.25 71.0462 31.5792 70.2514 32.1653 69.6653C32.7513 69.0793 33.5462 68.75 34.375 68.75H53.125C53.9538 68.75 54.7487 69.0793 55.3347 69.6653C55.9208 70.2514 56.25 71.0462 56.25 71.875C56.25 72.7038 55.9208 73.4987 55.3347 74.0848C54.7487 74.6708 53.9538 75 53.125 75ZM53.125 62.5H34.375C33.5462 62.5 32.7513 62.1708 32.1653 61.5848C31.5792 60.9987 31.25 60.2038 31.25 59.375C31.25 58.5462 31.5792 57.7514 32.1653 57.1653C32.7513 56.5793 33.5462 56.25 34.375 56.25H53.125C53.9538 56.25 54.7487 56.5793 55.3347 57.1653C55.9208 57.7514 56.25 58.5462 56.25 59.375C56.25 60.2038 55.9208 60.9987 55.3347 61.5848C54.7487 62.1708 53.9538 62.5 53.125 62.5ZM78.125 71.875H71.875V40.6251C71.8797 39.7936 71.5569 38.9938 70.9766 38.3985L55.3516 22.7735C54.7562 22.1931 53.9564 21.8704 53.125 21.8751H34.375V15.6251H64.3359L78.125 29.4141V71.875Z" fill="#0072C5"/>
</svg>
