<svg width="45" height="51" viewBox="0 0 45 51" fill="none" xmlns="http://www.w3.org/2000/svg">
<path d="M43.2414 0.0006171L1.43101 4.57764e-05C1.05224 4.57764e-05 0.687179 0.150868 0.41924 0.419378C0.150159 0.687887 -9.15527e-05 1.05123 -9.15527e-05 1.43114V49.3641C-9.15527e-05 50.1548 0.640904 50.7958 1.43101 50.7958H38.7144C41.9994 50.7958 44.6731 48.1233 44.6731 44.8383V1.43172C44.6725 0.641041 44.0309 0.0006171 43.2414 0.0006171ZM13.226 36.3928H8.43511C7.64501 36.3928 7.00401 35.7524 7.00401 34.9617C7.00401 34.171 7.64501 33.5306 8.43511 33.5306H13.226C14.0167 33.5306 14.6571 34.171 14.6571 34.9617C14.6571 35.7524 14.0167 36.3928 13.226 36.3928ZM22.9935 36.3928H19.5617C18.7716 36.3928 18.1306 35.7524 18.1306 34.9617C18.1306 34.171 18.7716 33.5306 19.5617 33.5306H22.9935C23.7836 33.5306 24.4246 34.171 24.4246 34.9617C24.4246 35.7524 23.7836 36.3928 22.9935 36.3928ZM32.8518 36.3928H29.4211C28.631 36.3928 27.99 35.7524 27.99 34.9617C27.99 34.171 28.631 33.5306 29.4211 33.5306H32.8518C33.6419 33.5306 34.2829 34.171 34.2829 34.9617C34.2829 35.7524 33.6419 36.3928 32.8518 36.3928ZM36.2396 26.8881H8.43568C7.64558 26.8881 7.00458 26.2471 7.00458 25.457C7.00458 24.6664 7.64558 24.0259 8.43568 24.0259H36.2396C37.0297 24.0259 37.6712 25.457 37.6712 25.457C37.6712 25.457 37.0297 26.8881 36.2396 26.8881ZM36.2396 17.2618H8.43568C7.64558 17.2618 7.00458 16.6208 7.00458 15.8307C7.00458 15.0406 7.64558 14.3996 8.43568 14.3996H36.2396C37.0297 14.3996 37.6712 15.04 37.6712 15.8307C37.6712 16.6214 37.0297 17.2618 36.2396 17.2618Z" fill="#0072C5"/>
</svg>
