<svg width="54" height="53" viewBox="0 0 54 53" fill="none" xmlns="http://www.w3.org/2000/svg">
<path d="M14.2019 28.1881L24.9873 38.9699L47.6626 16.2927L36.882 5.51035L14.2019 28.1881ZM39.4393 13.7349C40.1883 14.4856 40.1883 15.7015 39.4393 16.451L26.3078 29.5789C25.9337 29.9554 25.4423 30.1416 24.9528 30.1416C24.4584 30.1416 23.9683 29.9554 23.5941 29.5789C22.844 28.8282 22.844 27.6129 23.5941 26.8634L36.7238 13.7349C37.4727 12.9847 38.6892 12.9847 39.4393 13.7349Z" fill="#0072C5"/>
<path d="M9.26576 43.7514L21.248 40.6671L12.4726 31.8917L9.26576 43.7514Z" fill="#0072C5"/>
<path d="M52.0367 6.24858L46.9251 1.13518C45.4094 -0.379327 42.7659 -0.377542 41.2561 1.13518L39.5953 2.79662L50.3795 13.5778L52.0367 11.9194C53.597 10.3549 53.597 7.81068 52.0367 6.24858Z" fill="#4DD9E9"/>
<path d="M47.2567 52.0651H1.97372C0.883349 52.0651 -1.52588e-05 51.1812 -1.52588e-05 50.0908V2.0721C-1.52588e-05 0.98173 0.882754 0.0983658 1.97372 0.0983658H32.3787C33.4703 0.0983658 34.3518 0.98173 34.3518 2.0721C34.3518 3.16188 33.4703 4.04584 32.3787 4.04584H3.94746V48.1165H47.2567C48.7985 48.1165 50.0531 46.8625 50.0531 45.32V20.5579C50.0531 19.4675 50.9359 18.5842 52.0262 18.5842C53.116 18.5842 54 19.4675 54 20.5579V45.32C54.0006 49.0391 50.9751 52.0651 47.2567 52.0651Z" fill="#0072C5"/>
</svg>
