<svg width="48" height="52" viewBox="0 0 48 52" fill="none" xmlns="http://www.w3.org/2000/svg">
<path fill-rule="evenodd" clip-rule="evenodd" d="M0 2C0 0.895434 0.895431 0 2 0H46C47.1046 0 48 0.895431 48 2V41.2C48 46.7228 43.5228 51.2 38 51.2H2C0.895431 51.2 0 50.3046 0 49.2V2ZM37.8701 40.4792H28.0887C27.4643 40.4792 26.959 39.9739 26.959 39.3495C26.959 38.7257 27.4643 38.2197 28.0887 38.2197H37.8701C38.4939 38.2197 38.9999 38.7257 38.9999 39.3495C38.9999 39.9735 38.4939 40.4792 37.8701 40.4792ZM23.6363 27.0259H37.8704C38.4942 27.0259 39.0002 26.5195 39.0002 25.8958C39.0002 25.2721 38.4942 24.7661 37.8704 24.7661H23.6363C23.0119 24.7661 22.5066 25.2721 22.5066 25.8958C22.5066 26.5195 23.0119 27.0259 23.6363 27.0259ZM37.8704 20.2995H23.6363C23.0119 20.2995 22.5066 19.7935 22.5066 19.1691C22.5066 18.5453 23.0119 18.0393 23.6363 18.0393H37.8704C38.4942 18.0393 39.0002 18.5453 39.0002 19.1691C39.0002 19.7935 38.4942 20.2995 37.8704 20.2995ZM23.6363 13.5727H37.8704C38.4942 13.5727 39.0002 13.0667 39.0002 12.4423C39.0002 11.8186 38.4942 11.3126 37.8704 11.3126H23.6363C23.0119 11.3126 22.5066 11.8186 22.5066 12.4423C22.5066 13.0667 23.0119 13.5727 23.6363 13.5727ZM37.8697 33.7525H30.316C29.6923 33.7525 29.1863 33.2471 29.1863 32.6227C29.1863 31.999 29.6923 31.493 30.316 31.493H37.8697C38.4935 31.493 38.9995 31.999 38.9995 32.6227C38.9995 33.2471 38.4935 33.7525 37.8697 33.7525ZM17.5103 40.9699C17.51 40.9699 17.5097 40.9699 17.5094 40.9699C17.1489 40.9699 16.7866 40.8319 16.5113 40.5555L9.41317 33.4571C8.86216 32.9054 8.86216 32.0118 9.41385 31.4601C9.96552 30.9091 10.8592 30.9084 11.4109 31.4601L16.0986 36.1485V12.4125C16.0986 11.6322 16.7308 11 17.5112 11C18.2908 11 18.923 11.6322 18.923 12.4125V36.1479L23.6095 31.4601C24.1612 30.9084 25.0548 30.9091 25.6065 31.4601C26.1582 32.0111 26.1582 32.9054 25.6072 33.4571L18.5104 40.5555C18.2341 40.8315 17.8728 40.9699 17.5112 40.9699C17.5109 40.9699 17.5106 40.9699 17.5103 40.9699Z" fill="#0072C5"/>
</svg>
