<svg width="41" height="41" viewBox="0 0 41 41" fill="none" xmlns="http://www.w3.org/2000/svg">
<g clip-path="url(#clip0_111_326)">
<path d="M39.5643 12.0207L21.1002 3.24843C20.8048 3.10909 20.4628 3.10909 20.1683 3.24843L1.7072 12.0207C1.32874 12.2001 1.08742 12.5821 1.08742 13.0018C1.08742 13.4199 1.32874 13.8014 1.7072 13.9816L20.1683 22.7526C20.3155 22.8221 20.4747 22.8577 20.6338 22.8577C20.7934 22.8577 20.9529 22.8221 21.1002 22.7526L39.5643 13.9816C39.9428 13.8014 40.1841 13.4199 40.1841 13.0018C40.1841 12.5821 39.9428 12.2001 39.5643 12.0207Z" fill="#0072C5"/>
<path d="M20.6342 30.615C20.4219 30.615 20.21 30.5689 20.0127 30.4757L1.55203 21.7043C0.829828 21.361 0.523015 20.4981 0.865432 19.7763C1.20829 19.0546 2.07071 18.7473 2.79422 19.0898L20.6333 27.5658L38.4773 19.0898C39.1977 18.7469 40.0624 19.0533 40.4052 19.7763C40.7481 20.4985 40.4417 21.361 39.7186 21.7043L21.2553 30.4757C21.0588 30.5684 20.8465 30.615 20.6342 30.615Z" fill="#0072C5"/>
<path d="M20.6342 38.0115C20.4219 38.0115 20.21 37.9654 20.0127 37.8722L1.55203 29.1012C0.829828 28.7584 0.523015 27.8942 0.865432 27.172C1.20829 26.4489 2.07071 26.1425 2.79422 26.4854L20.6333 34.961L38.4777 26.4854C39.1995 26.1425 40.0628 26.4489 40.4057 27.172C40.7485 27.8942 40.4421 28.7579 39.7199 29.1012L21.2553 37.8722C21.0588 37.9654 20.8465 38.0115 20.6342 38.0115Z" fill="#0072C5"/>
</g>
<defs>
<clipPath id="clip0_111_326">
<rect width="40" height="40" fill="white" transform="translate(0.625 0.6875)"/>
</clipPath>
</defs>
</svg>
