<svg width="16" height="16" viewBox="0 0 16 16" fill="none" xmlns="http://www.w3.org/2000/svg">
<path d="M9.29805 1.05289C9.11245 0.964357 8.89379 0.987823 8.73379 1.11689L3.54557 5.26725H1.06666C0.478929 5.26725 0 5.74618 0 6.3339V10.6005C0 11.1893 0.478929 11.6672 1.06666 11.6672H3.54557L8.73272 15.8175C8.82979 15.8943 8.94818 15.9338 9.06658 15.9338C9.14552 15.9338 9.22445 15.9157 9.29805 15.8805C9.48258 15.7919 9.59991 15.6053 9.59991 15.4005V1.53395C9.59991 1.32915 9.48258 1.14249 9.29805 1.05289Z" fill="white"/>
<path d="M12.3006 4.69547C12.0904 4.48854 11.7534 4.49174 11.5465 4.69974C11.3395 4.90987 11.3417 5.24693 11.5507 5.45493C12.3571 6.25066 12.8008 7.32051 12.8008 8.46717C12.8008 9.61382 12.3571 10.6837 11.5507 11.4794C11.3417 11.6853 11.3395 12.0234 11.5465 12.2335C11.651 12.3391 11.7886 12.3914 11.9251 12.3914C12.0606 12.3914 12.196 12.3402 12.3006 12.2367C13.3118 11.2415 13.8675 9.90182 13.8675 8.46717C13.8675 7.03252 13.3118 5.69279 12.3006 4.69547Z" fill="white"/>
<path d="M13.8047 3.19289C13.5946 2.98489 13.2575 2.98703 13.0495 3.19609C12.8426 3.40516 12.8447 3.74329 13.0527 3.95022C14.2655 5.15234 14.9332 6.75659 14.9332 8.46751C14.9332 10.1784 14.2655 11.7816 13.0527 12.9837C12.8447 13.1917 12.8426 13.5299 13.0495 13.7389C13.1551 13.8435 13.2916 13.8957 13.4282 13.8957C13.5636 13.8957 13.7002 13.8445 13.8047 13.7411C15.2212 12.3384 15.9999 10.4654 15.9999 8.46751C15.9999 6.46966 15.2212 4.59661 13.8047 3.19289Z" fill="white"/>
</svg>
