<svg width="41" height="41" viewBox="0 0 41 41" fill="none" xmlns="http://www.w3.org/2000/svg">
<g clip-path="url(#clip0_111_308)">
<path d="M12.0057 40.2422C11.7103 40.2422 11.4114 40.1529 11.1534 39.9683C10.4932 39.4971 10.3411 38.5802 10.8128 37.9208L16.5785 29.8501C17.0514 29.1899 17.9684 29.0387 18.6268 29.5094C19.2862 29.9806 19.44 30.8976 18.9675 31.5569L13.2018 39.6277C12.9147 40.0285 12.4633 40.2422 12.0057 40.2422Z" fill="#0465AB"/>
<path d="M29.1963 40.2422C28.7379 40.2422 28.2873 40.0286 28.0003 39.6277L22.2337 31.5569C21.7634 30.8976 21.915 29.9807 22.5752 29.5095C23.2346 29.0391 24.1515 29.1908 24.6227 29.8501L30.3893 37.9209C30.8614 38.5802 30.708 39.4972 30.0486 39.9684C29.7906 40.153 29.4917 40.2422 29.1963 40.2422Z" fill="#0465AB"/>
<path d="M36.9374 1.4303H4.26357C3.65566 1.4303 3.16203 1.92304 3.16203 2.53096V30.7041C3.16203 31.3129 3.65566 31.8057 4.26357 31.8057H33.435C35.9726 31.8057 38.0394 29.7411 38.0394 27.2022V2.53096C38.039 1.92348 37.5453 1.4303 36.9374 1.4303Z" fill="#0072C5"/>
<path d="M20.2398 13.8259C19.6319 13.8259 19.1383 14.3187 19.1383 14.9266V25.222C19.1383 25.8308 19.6319 26.3235 20.2398 26.3235C20.8473 26.3235 21.34 25.8308 21.34 25.222V14.9266C21.34 14.3187 20.8473 13.8259 20.2398 13.8259Z" fill="#4DD9E9"/>
<path d="M13.243 17.738C12.6351 17.738 12.1415 18.2308 12.1415 18.8387V25.2224C12.1415 25.8303 12.6351 26.3231 13.243 26.3231C13.8509 26.3231 14.3446 25.8303 14.3446 25.2224V18.8387C14.3441 18.2308 13.8505 17.738 13.243 17.738Z" fill="#4DD9E9"/>
<path d="M28.1601 16.9138C27.5522 16.9138 27.0594 17.4066 27.0594 18.0154V25.222C27.0594 25.8307 27.5522 26.3235 28.1601 26.3235C28.768 26.3235 29.2616 25.8307 29.2616 25.222V18.0154C29.2612 17.4066 28.7676 16.9138 28.1601 16.9138Z" fill="#4DD9E9"/>
<path d="M32.8165 7.97755C32.3897 7.54238 31.6926 7.53447 31.2601 7.96041L26.7862 12.3371L18.344 7.77931C17.9585 7.57052 17.4855 7.61008 17.1396 7.88216L8.4917 14.68C8.01346 15.0553 7.93126 15.7481 8.30621 16.2263C8.52247 16.5019 8.84687 16.647 9.17258 16.647C9.41039 16.647 9.6517 16.5696 9.8517 16.411L17.933 10.0606L26.4543 14.6606C26.8785 14.8892 27.402 14.8162 27.7471 14.4786L32.7994 9.53535C33.2341 9.10898 33.2416 8.41183 32.8165 7.97755Z" fill="#4DD9E9"/>
<path d="M39.1207 3.99913H2.14313C1.33171 3.99913 0.675003 3.34243 0.675003 2.531C0.675003 1.72045 1.33171 1.06287 2.14313 1.06287H39.1212C39.9317 1.06287 40.5902 1.72045 40.5902 2.531C40.5897 3.34243 39.9313 3.99913 39.1207 3.99913Z" fill="#0465AB"/>
</g>
<defs>
<clipPath id="clip0_111_308">
<rect width="40" height="40" fill="white" transform="translate(0.625 0.6875)"/>
</clipPath>
</defs>
</svg>
